<svg width="352" height="168" viewBox="0 0 352 168" fill="none" xmlns="http://www.w3.org/2000/svg">
<path d="M78.7502 128.625C78.7502 106.879 61.1214 89.25 39.3752 89.25C17.629 89.25 0.000244141 106.879 0.000244141 128.625C0.000244141 150.371 17.629 168 39.3752 168C61.1214 168 78.7502 150.371 78.7502 128.625Z" fill="#2C2C3E"/>
<path d="M351.75 128.625C351.75 106.879 334.121 89.25 312.375 89.25H128.625C106.879 89.25 89.25 106.879 89.25 128.625C89.25 150.371 106.879 168 128.625 168H312.375C334.121 168 351.75 150.371 351.75 128.625Z" fill="#0075F2"/>
<path d="M273 39.375C273 17.6288 290.628 0 312.374 0C334.121 0 351.749 17.6288 351.749 39.375C351.749 61.1212 334.121 78.7499 312.374 78.7499C290.628 78.7499 273 61.1212 273 39.375Z" fill="#2C2C3E"/>
<path d="M0 39.375C0 17.6288 17.6288 0 39.375 0H223.125C244.871 0 262.5 17.6288 262.5 39.375C262.5 61.1212 244.871 78.7499 223.125 78.7499H39.3749C17.6287 78.7499 0 61.1212 0 39.375Z" fill="#FF5A5F"/>
</svg>
